<svg class="diagram-root" style="background: #f5f6f6" xmlns="http://www.w3.org/2000/svg" xmlns:xlink="http://www.w3.org/1999/xlink"><style>.diagram-root { font-family: "Helvetica Neue", sans-serif; font-size: 12px; } .t { overflow: visible; } .t-bg { y: 40; fill: #fff;   } .th { fill: #005aa0;   } .tht { fill: #fff; font-size: 14px;  } .tf { fill: #323c46; overflow: visible; } .tf.pk { fill: #005aa0; font-weight: bold; } .tf.fk { font-weight: bold; } .ty { fill: #adb1b5; font-weight: normal; text-anchor: end; } .r { fill: transparent; stroke: #c3c3c3; stroke-width: 1; } .l { stroke: 1; } .i { fill: #c2c7ce; stroke: #c2c7ce; } .i.ix { fill: #afb3b6; stroke: #000; } .fa { fill: transparent; overflow: visible; } .fa .bg.hover { fill: #f7f7f7; } .c { cy: 12; r: 4; stroke: #d2d2dc; fill: #d2d2dc; } .hr { fill: transparent; stroke: #323c46; stroke-opacity: 0.035; stroke-width: 13; } .dc { stroke: #fa5a3c; fill: #fa5a3c; } .x { stroke: white; stroke-width: 1; } .hl .th { fill: #1b9bff; } .hl .tht {  } .fhl .bg { fill: #e7f4ff; } .fhls .bg {  } .r.hl { stroke: #1b9bff; } .dim { opacity: 0.25; }</style><g class="drawing-wrapper" transform="translate(153.17999999999998, 184.11999999999995) scale(1,1)"><g class="rs"><path d="M 482.32 77.88000000000005 m -1, 0 a 1,1 0 1,0 2,0 a 1,1 0 1,0 -2,0 M 482.32 77.88000000000005 m -0.5, 0 a 0.5,0.5 0 1,0 1,0 a 0.5,0.5 0 1,0 -1,0  M482.32 77.88000000000005 L482.32 77.88000000000005 494.32 77.88000000000005 M488.32 83.88000000000005 L488.32 83.88000000000005 488.32 71.88000000000005 M494.32 77.88000000000005 C 539.5550304243627 77.88000000000005, 538.7810304243626 207.38666666666694, 495.61 207.38666666666694 M 483.61 207.38666666666694 m -1, 0 a 1,1 0 1,0 2,0 a 1,1 0 1,0 -2,0 M 483.61 207.38666666666694 m -0.5, 0 a 0.5,0.5 0 1,0 1,0 a 0.5,0.5 0 1,0 -1,0  M483.61 207.38666666666694 L483.61 207.38666666666694 495.61 207.38666666666694 M489.61 213.38666666666694 L489.61 213.38666666666694 489.61 201.38666666666694" id="h603262789" class="r"></path><path d="M -2.44 -60.23666666666668 m -1, 0 a 1,1 0 1,0 2,0 a 1,1 0 1,0 -2,0 M -2.44 -60.23666666666668 m -0.5, 0 a 0.5,0.5 0 1,0 1,0 a 0.5,0.5 0 1,0 -1,0  M-2.44 -60.23666666666668 L-2.44 -60.23666666666668 9.56 -60.23666666666668 M -2.44 -54.23666666666668 m -1, 0 a 1,1 0 1,0 2,0 a 1,1 0 1,0 -2,0 M -2.44 -54.23666666666668 m -0.5, 0 a 0.5,0.5 0 1,0 1,0 a 0.5,0.5 0 1,0 -1,0  M-2.44 -54.23666666666668 L-2.44 -54.23666666666668 4.5600000000000005 -60.23666666666668 -2.44 -66.23666666666668 M -2.44 -66.23666666666668 m -1, 0 a 1,1 0 1,0 2,0 a 1,1 0 1,0 -2,0 M -2.44 -66.23666666666668 m -0.5, 0 a 0.5,0.5 0 1,0 1,0 a 0.5,0.5 0 1,0 -1,0  M9.56 -60.23666666666668 Q 81.89 -60.23666666666668, 154.22 73.58 T 298.8899999999997 207.38666666666694 M 310.8899999999997 207.38666666666694 m -1, 0 a 1,1 0 1,0 2,0 a 1,1 0 1,0 -2,0 M 310.8899999999997 207.38666666666694 m -0.5, 0 a 0.5,0.5 0 1,0 1,0 a 0.5,0.5 0 1,0 -1,0  M310.8899999999997 207.38666666666694 L310.8899999999997 207.38666666666694 298.8899999999997 207.38666666666694 M304.8899999999997 213.38666666666694 L304.8899999999997 213.38666666666694 304.8899999999997 201.38666666666694" id="h1813740523" class="r"></path><path d="M -2.44 -35.23666666666668 m -1, 0 a 1,1 0 1,0 2,0 a 1,1 0 1,0 -2,0 M -2.44 -35.23666666666668 m -0.5, 0 a 0.5,0.5 0 1,0 1,0 a 0.5,0.5 0 1,0 -1,0  M-2.44 -35.23666666666668 L-2.44 -35.23666666666668 9.56 -35.23666666666668 M -2.44 -29.23666666666668 m -1, 0 a 1,1 0 1,0 2,0 a 1,1 0 1,0 -2,0 M -2.44 -29.23666666666668 m -0.5, 0 a 0.5,0.5 0 1,0 1,0 a 0.5,0.5 0 1,0 -1,0  M-2.44 -29.23666666666668 L-2.44 -29.23666666666668 4.5600000000000005 -35.23666666666668 -2.44 -41.23666666666668 M -2.44 -41.23666666666668 m -1, 0 a 1,1 0 1,0 2,0 a 1,1 0 1,0 -2,0 M -2.44 -41.23666666666668 m -0.5, 0 a 0.5,0.5 0 1,0 1,0 a 0.5,0.5 0 1,0 -1,0  M9.56 -35.23666666666668 C 120.85102115734534 -35.23666666666668, 94.73302115734535 81.86333333333333, 53.09 81.86333333333333 M 41.09 81.86333333333333 m -1, 0 a 1,1 0 1,0 2,0 a 1,1 0 1,0 -2,0 M 41.09 81.86333333333333 m -0.5, 0 a 0.5,0.5 0 1,0 1,0 a 0.5,0.5 0 1,0 -1,0  M41.09 81.86333333333333 L41.09 81.86333333333333 53.09 81.86333333333333 M47.09 87.86333333333333 L47.09 87.86333333333333 47.09 75.86333333333333" id="h3956790981" class="r"></path><path d="M 74.05 366.11333333333334 m -1, 0 a 1,1 0 1,0 2,0 a 1,1 0 1,0 -2,0 M 74.05 366.11333333333334 m -0.5, 0 a 0.5,0.5 0 1,0 1,0 a 0.5,0.5 0 1,0 -1,0  M74.05 366.11333333333334 L74.05 366.11333333333334 86.05 366.11333333333334 M 74.05 372.11333333333334 m -1, 0 a 1,1 0 1,0 2,0 a 1,1 0 1,0 -2,0 M 74.05 372.11333333333334 m -0.5, 0 a 0.5,0.5 0 1,0 1,0 a 0.5,0.5 0 1,0 -1,0  M74.05 372.11333333333334 L74.05 372.11333333333334 81.05 366.11333333333334 74.05 360.11333333333334 M 74.05 360.11333333333334 m -1, 0 a 1,1 0 1,0 2,0 a 1,1 0 1,0 -2,0 M 74.05 360.11333333333334 m -0.5, 0 a 0.5,0.5 0 1,0 1,0 a 0.5,0.5 0 1,0 -1,0  M86.05 366.11333333333334 Q 139.26 366.11333333333334, 192.47 286.75 T 298.8899999999997 207.38666666666694 M 310.8899999999997 207.38666666666694 m -1, 0 a 1,1 0 1,0 2,0 a 1,1 0 1,0 -2,0 M 310.8899999999997 207.38666666666694 m -0.5, 0 a 0.5,0.5 0 1,0 1,0 a 0.5,0.5 0 1,0 -1,0  M310.8899999999997 207.38666666666694 L310.8899999999997 207.38666666666694 298.8899999999997 207.38666666666694 M304.8899999999997 213.38666666666694 L304.8899999999997 213.38666666666694 304.8899999999997 201.38666666666694" id="h2344922247" class="r"></path><path d="M -9.363333333333346 551.6533333333333 m -1, 0 a 1,1 0 1,0 2,0 a 1,1 0 1,0 -2,0 M -9.363333333333346 551.6533333333333 m -0.5, 0 a 0.5,0.5 0 1,0 1,0 a 0.5,0.5 0 1,0 -1,0  M-9.363333333333346 551.6533333333333 L-9.363333333333346 551.6533333333333 -21.363333333333344 551.6533333333333 M -9.363333333333346 557.6533333333333 m -1, 0 a 1,1 0 1,0 2,0 a 1,1 0 1,0 -2,0 M -9.363333333333346 557.6533333333333 m -0.5, 0 a 0.5,0.5 0 1,0 1,0 a 0.5,0.5 0 1,0 -1,0  M-9.363333333333346 557.6533333333333 L-9.363333333333346 557.6533333333333 -16.363333333333344 551.6533333333333 -9.363333333333346 545.6533333333333 M -9.363333333333346 545.6533333333333 m -1, 0 a 1,1 0 1,0 2,0 a 1,1 0 1,0 -2,0 M -9.363333333333346 545.6533333333333 m -0.5, 0 a 0.5,0.5 0 1,0 1,0 a 0.5,0.5 0 1,0 -1,0  M-21.363333333333344 551.6533333333333 C -46.363333333333344 551.6533333333333, -46.363333333333344 476.6533333333333, -21.363333333333344 476.6533333333333 M -9.363333333333346 476.6533333333333 m -1, 0 a 1,1 0 1,0 2,0 a 1,1 0 1,0 -2,0 M -9.363333333333346 476.6533333333333 m -0.5, 0 a 0.5,0.5 0 1,0 1,0 a 0.5,0.5 0 1,0 -1,0  M-9.363333333333346 476.6533333333333 L-9.363333333333346 476.6533333333333 -21.363333333333344 476.6533333333333 M-15.363333333333346 482.6533333333333 L-15.363333333333346 482.6533333333333 -15.363333333333346 470.6533333333333" id="h3282990052" class="r"></path><path d="M 119.77 576.6533333333333 m -1, 0 a 1,1 0 1,0 2,0 a 1,1 0 1,0 -2,0 M 119.77 576.6533333333333 m -0.5, 0 a 0.5,0.5 0 1,0 1,0 a 0.5,0.5 0 1,0 -1,0  M119.77 576.6533333333333 L119.77 576.6533333333333 131.76999999999998 576.6533333333333 M 119.77 582.6533333333333 m -1, 0 a 1,1 0 1,0 2,0 a 1,1 0 1,0 -2,0 M 119.77 582.6533333333333 m -0.5, 0 a 0.5,0.5 0 1,0 1,0 a 0.5,0.5 0 1,0 -1,0  M119.77 582.6533333333333 L119.77 582.6533333333333 126.77 576.6533333333333 119.77 570.6533333333333 M 119.77 570.6533333333333 m -1, 0 a 1,1 0 1,0 2,0 a 1,1 0 1,0 -2,0 M 119.77 570.6533333333333 m -0.5, 0 a 0.5,0.5 0 1,0 1,0 a 0.5,0.5 0 1,0 -1,0  M131.76999999999998 576.6533333333333 Q 173.55 576.6533333333333, 215.33 392.02 T 298.8899999999997 207.38666666666694 M 310.8899999999997 207.38666666666694 m -1, 0 a 1,1 0 1,0 2,0 a 1,1 0 1,0 -2,0 M 310.8899999999997 207.38666666666694 m -0.5, 0 a 0.5,0.5 0 1,0 1,0 a 0.5,0.5 0 1,0 -1,0  M310.8899999999997 207.38666666666694 L310.8899999999997 207.38666666666694 298.8899999999997 207.38666666666694 M304.8899999999997 213.38666666666694 L304.8899999999997 213.38666666666694 304.8899999999997 201.38666666666694" id="h3329097985" class="r"></path><path d="M 119.77 601.6533333333333 m -1, 0 a 1,1 0 1,0 2,0 a 1,1 0 1,0 -2,0 M 119.77 601.6533333333333 m -0.5, 0 a 0.5,0.5 0 1,0 1,0 a 0.5,0.5 0 1,0 -1,0  M119.77 601.6533333333333 L119.77 601.6533333333333 131.76999999999998 601.6533333333333 M 119.77 607.6533333333333 m -1, 0 a 1,1 0 1,0 2,0 a 1,1 0 1,0 -2,0 M 119.77 607.6533333333333 m -0.5, 0 a 0.5,0.5 0 1,0 1,0 a 0.5,0.5 0 1,0 -1,0  M119.77 607.6533333333333 L119.77 607.6533333333333 126.77 601.6533333333333 119.77 595.6533333333333 M 119.77 595.6533333333333 m -1, 0 a 1,1 0 1,0 2,0 a 1,1 0 1,0 -2,0 M 119.77 595.6533333333333 m -0.5, 0 a 0.5,0.5 0 1,0 1,0 a 0.5,0.5 0 1,0 -1,0  M131.76999999999998 601.6533333333333 C 181.76999999999998 601.6533333333333, 209.202 216.11333333333334, 86.05 216.11333333333334 M 74.05 216.11333333333334 m -1, 0 a 1,1 0 1,0 2,0 a 1,1 0 1,0 -2,0 M 74.05 216.11333333333334 m -0.5, 0 a 0.5,0.5 0 1,0 1,0 a 0.5,0.5 0 1,0 -1,0  M74.05 216.11333333333334 L74.05 216.11333333333334 86.05 216.11333333333334 M80.05 222.11333333333334 L80.05 222.11333333333334 80.05 210.11333333333334" id="h2702108967" class="r"></path><path d="M 344.3766666666668 618.096666666667 m -1, 0 a 1,1 0 1,0 2,0 a 1,1 0 1,0 -2,0 M 344.3766666666668 618.096666666667 m -0.5, 0 a 0.5,0.5 0 1,0 1,0 a 0.5,0.5 0 1,0 -1,0  M344.3766666666668 618.096666666667 L344.3766666666668 618.096666666667 332.3766666666668 618.096666666667 M 344.3766666666668 624.096666666667 m -1, 0 a 1,1 0 1,0 2,0 a 1,1 0 1,0 -2,0 M 344.3766666666668 624.096666666667 m -0.5, 0 a 0.5,0.5 0 1,0 1,0 a 0.5,0.5 0 1,0 -1,0  M344.3766666666668 624.096666666667 L344.3766666666668 624.096666666667 337.3766666666668 618.096666666667 344.3766666666668 612.096666666667 M 344.3766666666668 612.096666666667 m -1, 0 a 1,1 0 1,0 2,0 a 1,1 0 1,0 -2,0 M 344.3766666666668 612.096666666667 m -0.5, 0 a 0.5,0.5 0 1,0 1,0 a 0.5,0.5 0 1,0 -1,0  M332.3766666666668 618.096666666667 C 228.79799999999946 618.096666666667, 248.8899999999997 207.38666666666694, 298.8899999999997 207.38666666666694 M 310.8899999999997 207.38666666666694 m -1, 0 a 1,1 0 1,0 2,0 a 1,1 0 1,0 -2,0 M 310.8899999999997 207.38666666666694 m -0.5, 0 a 0.5,0.5 0 1,0 1,0 a 0.5,0.5 0 1,0 -1,0  M310.8899999999997 207.38666666666694 L310.8899999999997 207.38666666666694 298.8899999999997 207.38666666666694 M 310.8899999999997 213.38666666666694 m -1, 0 a 1,1 0 1,0 2,0 a 1,1 0 1,0 -2,0 M 310.8899999999997 213.38666666666694 m -0.5, 0 a 0.5,0.5 0 1,0 1,0 a 0.5,0.5 0 1,0 -1,0  M310.8899999999997 213.38666666666694 L310.8899999999997 213.38666666666694 303.8899999999997 207.38666666666694 310.8899999999997 201.38666666666694 M 310.8899999999997 201.38666666666694 m -1, 0 a 1,1 0 1,0 2,0 a 1,1 0 1,0 -2,0 M 310.8899999999997 201.38666666666694 m -0.5, 0 a 0.5,0.5 0 1,0 1,0 a 0.5,0.5 0 1,0 -1,0 " id="h3590585154" class="r"></path><path d="M 344.3766666666668 643.096666666667 m -1, 0 a 1,1 0 1,0 2,0 a 1,1 0 1,0 -2,0 M 344.3766666666668 643.096666666667 m -0.5, 0 a 0.5,0.5 0 1,0 1,0 a 0.5,0.5 0 1,0 -1,0  M344.3766666666668 643.096666666667 L344.3766666666668 643.096666666667 332.3766666666668 643.096666666667 M 344.3766666666668 649.096666666667 m -1, 0 a 1,1 0 1,0 2,0 a 1,1 0 1,0 -2,0 M 344.3766666666668 649.096666666667 m -0.5, 0 a 0.5,0.5 0 1,0 1,0 a 0.5,0.5 0 1,0 -1,0  M344.3766666666668 649.096666666667 L344.3766666666668 649.096666666667 337.3766666666668 643.096666666667 344.3766666666668 637.096666666667 M 344.3766666666668 637.096666666667 m -1, 0 a 1,1 0 1,0 2,0 a 1,1 0 1,0 -2,0 M 344.3766666666668 637.096666666667 m -0.5, 0 a 0.5,0.5 0 1,0 1,0 a 0.5,0.5 0 1,0 -1,0  M332.3766666666668 643.096666666667 C 228.79799999999946 643.096666666667, 248.8899999999997 207.38666666666694, 298.8899999999997 207.38666666666694 M 310.8899999999997 207.38666666666694 m -1, 0 a 1,1 0 1,0 2,0 a 1,1 0 1,0 -2,0 M 310.8899999999997 207.38666666666694 m -0.5, 0 a 0.5,0.5 0 1,0 1,0 a 0.5,0.5 0 1,0 -1,0  M310.8899999999997 207.38666666666694 L310.8899999999997 207.38666666666694 298.8899999999997 207.38666666666694 M 310.8899999999997 213.38666666666694 m -1, 0 a 1,1 0 1,0 2,0 a 1,1 0 1,0 -2,0 M 310.8899999999997 213.38666666666694 m -0.5, 0 a 0.5,0.5 0 1,0 1,0 a 0.5,0.5 0 1,0 -1,0  M310.8899999999997 213.38666666666694 L310.8899999999997 213.38666666666694 303.8899999999997 207.38666666666694 310.8899999999997 201.38666666666694 M 310.8899999999997 201.38666666666694 m -1, 0 a 1,1 0 1,0 2,0 a 1,1 0 1,0 -2,0 M 310.8899999999997 201.38666666666694 m -0.5, 0 a 0.5,0.5 0 1,0 1,0 a 0.5,0.5 0 1,0 -1,0 " id="h2148824831" class="r"></path><path d="M 883.0333333333332 223.01000000000002 m -1, 0 a 1,1 0 1,0 2,0 a 1,1 0 1,0 -2,0 M 883.0333333333332 223.01000000000002 m -0.5, 0 a 0.5,0.5 0 1,0 1,0 a 0.5,0.5 0 1,0 -1,0  M883.0333333333332 223.01000000000002 L883.0333333333332 223.01000000000002 871.0333333333332 223.01000000000002 M 883.0333333333332 229.01000000000002 m -1, 0 a 1,1 0 1,0 2,0 a 1,1 0 1,0 -2,0 M 883.0333333333332 229.01000000000002 m -0.5, 0 a 0.5,0.5 0 1,0 1,0 a 0.5,0.5 0 1,0 -1,0  M883.0333333333332 229.01000000000002 L883.0333333333332 229.01000000000002 876.0333333333332 223.01000000000002 883.0333333333332 217.01000000000002 M 883.0333333333332 217.01000000000002 m -1, 0 a 1,1 0 1,0 2,0 a 1,1 0 1,0 -2,0 M 883.0333333333332 217.01000000000002 m -0.5, 0 a 0.5,0.5 0 1,0 1,0 a 0.5,0.5 0 1,0 -1,0  M871.0333333333332 223.01000000000002 Q 777.18 223.01000000000002, 683.32 215.2 T 495.61 207.38666666666694 M 483.61 207.38666666666694 m -1, 0 a 1,1 0 1,0 2,0 a 1,1 0 1,0 -2,0 M 483.61 207.38666666666694 m -0.5, 0 a 0.5,0.5 0 1,0 1,0 a 0.5,0.5 0 1,0 -1,0  M483.61 207.38666666666694 L483.61 207.38666666666694 495.61 207.38666666666694 M489.61 213.38666666666694 L489.61 213.38666666666694 489.61 201.38666666666694" id="h3258977679" class="r"></path><path d="M 682.92 -7.163333333333355 m -1, 0 a 1,1 0 1,0 2,0 a 1,1 0 1,0 -2,0 M 682.92 -7.163333333333355 m -0.5, 0 a 0.5,0.5 0 1,0 1,0 a 0.5,0.5 0 1,0 -1,0  M682.92 -7.163333333333355 L682.92 -7.163333333333355 670.92 -7.163333333333355 M 682.92 -1.1633333333333553 m -1, 0 a 1,1 0 1,0 2,0 a 1,1 0 1,0 -2,0 M 682.92 -1.1633333333333553 m -0.5, 0 a 0.5,0.5 0 1,0 1,0 a 0.5,0.5 0 1,0 -1,0  M682.92 -1.1633333333333553 L682.92 -1.1633333333333553 675.92 -7.163333333333355 682.92 -13.163333333333355 M 682.92 -13.163333333333355 m -1, 0 a 1,1 0 1,0 2,0 a 1,1 0 1,0 -2,0 M 682.92 -13.163333333333355 m -0.5, 0 a 0.5,0.5 0 1,0 1,0 a 0.5,0.5 0 1,0 -1,0  M670.92 -7.163333333333355 Q 627.1 -7.163333333333355, 583.27 100.11 T 495.61 207.38666666666694 M 483.61 207.38666666666694 m -1, 0 a 1,1 0 1,0 2,0 a 1,1 0 1,0 -2,0 M 483.61 207.38666666666694 m -0.5, 0 a 0.5,0.5 0 1,0 1,0 a 0.5,0.5 0 1,0 -1,0  M483.61 207.38666666666694 L483.61 207.38666666666694 495.61 207.38666666666694 M 483.61 213.38666666666694 m -1, 0 a 1,1 0 1,0 2,0 a 1,1 0 1,0 -2,0 M 483.61 213.38666666666694 m -0.5, 0 a 0.5,0.5 0 1,0 1,0 a 0.5,0.5 0 1,0 -1,0  M483.61 213.38666666666694 L483.61 213.38666666666694 490.61 207.38666666666694 483.61 201.38666666666694 M 483.61 201.38666666666694 m -1, 0 a 1,1 0 1,0 2,0 a 1,1 0 1,0 -2,0 M 483.61 201.38666666666694 m -0.5, 0 a 0.5,0.5 0 1,0 1,0 a 0.5,0.5 0 1,0 -1,0 " id="h3785712329" class="r"></path><path d="M 799.17 17.836666666666645 m -1, 0 a 1,1 0 1,0 2,0 a 1,1 0 1,0 -2,0 M 799.17 17.836666666666645 m -0.5, 0 a 0.5,0.5 0 1,0 1,0 a 0.5,0.5 0 1,0 -1,0  M799.17 17.836666666666645 L799.17 17.836666666666645 811.17 17.836666666666645 M 799.17 23.836666666666645 m -1, 0 a 1,1 0 1,0 2,0 a 1,1 0 1,0 -2,0 M 799.17 23.836666666666645 m -0.5, 0 a 0.5,0.5 0 1,0 1,0 a 0.5,0.5 0 1,0 -1,0  M799.17 23.836666666666645 L799.17 23.836666666666645 806.17 17.836666666666645 799.17 11.836666666666645 M 799.17 11.836666666666645 m -1, 0 a 1,1 0 1,0 2,0 a 1,1 0 1,0 -2,0 M 799.17 11.836666666666645 m -0.5, 0 a 0.5,0.5 0 1,0 1,0 a 0.5,0.5 0 1,0 -1,0  M811.17 17.836666666666645 C 1162.882 17.836666666666645, 1049.74 123.01000000000002, 999.74 123.01000000000002 M 987.74 123.01000000000002 m -1, 0 a 1,1 0 1,0 2,0 a 1,1 0 1,0 -2,0 M 987.74 123.01000000000002 m -0.5, 0 a 0.5,0.5 0 1,0 1,0 a 0.5,0.5 0 1,0 -1,0  M987.74 123.01000000000002 L987.74 123.01000000000002 999.74 123.01000000000002 M 987.74 129.01000000000002 m -1, 0 a 1,1 0 1,0 2,0 a 1,1 0 1,0 -2,0 M 987.74 129.01000000000002 m -0.5, 0 a 0.5,0.5 0 1,0 1,0 a 0.5,0.5 0 1,0 -1,0  M987.74 129.01000000000002 L987.74 129.01000000000002 994.74 123.01000000000002 987.74 117.01000000000002 M 987.74 117.01000000000002 m -1, 0 a 1,1 0 1,0 2,0 a 1,1 0 1,0 -2,0 M 987.74 117.01000000000002 m -0.5, 0 a 0.5,0.5 0 1,0 1,0 a 0.5,0.5 0 1,0 -1,0 " id="h1790012435" class="r"></path><path d="M 1009.1666666666666 476.1666666666666 m -1, 0 a 1,1 0 1,0 2,0 a 1,1 0 1,0 -2,0 M 1009.1666666666666 476.1666666666666 m -0.5, 0 a 0.5,0.5 0 1,0 1,0 a 0.5,0.5 0 1,0 -1,0  M1009.1666666666666 476.1666666666666 L1009.1666666666666 476.1666666666666 997.1666666666666 476.1666666666666 M 1009.1666666666666 482.1666666666666 m -1, 0 a 1,1 0 1,0 2,0 a 1,1 0 1,0 -2,0 M 1009.1666666666666 482.1666666666666 m -0.5, 0 a 0.5,0.5 0 1,0 1,0 a 0.5,0.5 0 1,0 -1,0  M1009.1666666666666 482.1666666666666 L1009.1666666666666 482.1666666666666 1002.1666666666666 476.1666666666666 1009.1666666666666 470.1666666666666 M 1009.1666666666666 470.1666666666666 m -1, 0 a 1,1 0 1,0 2,0 a 1,1 0 1,0 -2,0 M 1009.1666666666666 470.1666666666666 m -0.5, 0 a 0.5,0.5 0 1,0 1,0 a 0.5,0.5 0 1,0 -1,0  M997.1666666666666 476.1666666666666 Q 871.78 476.1666666666666, 746.39 341.78 T 495.61 207.38666666666694 M 483.61 207.38666666666694 m -1, 0 a 1,1 0 1,0 2,0 a 1,1 0 1,0 -2,0 M 483.61 207.38666666666694 m -0.5, 0 a 0.5,0.5 0 1,0 1,0 a 0.5,0.5 0 1,0 -1,0  M483.61 207.38666666666694 L483.61 207.38666666666694 495.61 207.38666666666694 M489.61 213.38666666666694 L489.61 213.38666666666694 489.61 201.38666666666694" id="h3614636583" class="r"></path><path d="M 1009.1666666666666 501.1666666666666 m -1, 0 a 1,1 0 1,0 2,0 a 1,1 0 1,0 -2,0 M 1009.1666666666666 501.1666666666666 m -0.5, 0 a 0.5,0.5 0 1,0 1,0 a 0.5,0.5 0 1,0 -1,0  M1009.1666666666666 501.1666666666666 L1009.1666666666666 501.1666666666666 997.1666666666666 501.1666666666666 M 1009.1666666666666 507.1666666666666 m -1, 0 a 1,1 0 1,0 2,0 a 1,1 0 1,0 -2,0 M 1009.1666666666666 507.1666666666666 m -0.5, 0 a 0.5,0.5 0 1,0 1,0 a 0.5,0.5 0 1,0 -1,0  M1009.1666666666666 507.1666666666666 L1009.1666666666666 507.1666666666666 1002.1666666666666 501.1666666666666 1009.1666666666666 495.1666666666666 M 1009.1666666666666 495.1666666666666 m -1, 0 a 1,1 0 1,0 2,0 a 1,1 0 1,0 -2,0 M 1009.1666666666666 495.1666666666666 m -0.5, 0 a 0.5,0.5 0 1,0 1,0 a 0.5,0.5 0 1,0 -1,0  M997.1666666666666 501.1666666666666 C 745.3533333333331 501.1666666666666, 821.0333333333332 123.01000000000002, 871.0333333333332 123.01000000000002 M 883.0333333333332 123.01000000000002 m -1, 0 a 1,1 0 1,0 2,0 a 1,1 0 1,0 -2,0 M 883.0333333333332 123.01000000000002 m -0.5, 0 a 0.5,0.5 0 1,0 1,0 a 0.5,0.5 0 1,0 -1,0  M883.0333333333332 123.01000000000002 L883.0333333333332 123.01000000000002 871.0333333333332 123.01000000000002 M877.0333333333332 129.01000000000002 L877.0333333333332 129.01000000000002 877.0333333333332 117.01000000000002" id="h884468271" class="r"></path><path d="M 1031.6633333333334 713.6699999999998 m -1, 0 a 1,1 0 1,0 2,0 a 1,1 0 1,0 -2,0 M 1031.6633333333334 713.6699999999998 m -0.5, 0 a 0.5,0.5 0 1,0 1,0 a 0.5,0.5 0 1,0 -1,0  M1031.6633333333334 713.6699999999998 L1031.6633333333334 713.6699999999998 1019.6633333333334 713.6699999999998 M 1031.6633333333334 719.6699999999998 m -1, 0 a 1,1 0 1,0 2,0 a 1,1 0 1,0 -2,0 M 1031.6633333333334 719.6699999999998 m -0.5, 0 a 0.5,0.5 0 1,0 1,0 a 0.5,0.5 0 1,0 -1,0  M1031.6633333333334 719.6699999999998 L1031.6633333333334 719.6699999999998 1024.6633333333334 713.6699999999998 1031.6633333333334 707.6699999999998 M 1031.6633333333334 707.6699999999998 m -1, 0 a 1,1 0 1,0 2,0 a 1,1 0 1,0 -2,0 M 1031.6633333333334 707.6699999999998 m -0.5, 0 a 0.5,0.5 0 1,0 1,0 a 0.5,0.5 0 1,0 -1,0  M1019.6633333333334 713.6699999999998 C 994.6633333333334 713.6699999999998, 994.6633333333334 638.6699999999998, 1019.6633333333334 638.6699999999998 M 1031.6633333333334 638.6699999999998 m -1, 0 a 1,1 0 1,0 2,0 a 1,1 0 1,0 -2,0 M 1031.6633333333334 638.6699999999998 m -0.5, 0 a 0.5,0.5 0 1,0 1,0 a 0.5,0.5 0 1,0 -1,0  M1031.6633333333334 638.6699999999998 L1031.6633333333334 638.6699999999998 1019.6633333333334 638.6699999999998 M1025.6633333333334 644.6699999999998 L1025.6633333333334 644.6699999999998 1025.6633333333334 632.6699999999998" id="h2522164841" class="r"></path><path d="M 1031.6633333333334 738.6699999999998 m -1, 0 a 1,1 0 1,0 2,0 a 1,1 0 1,0 -2,0 M 1031.6633333333334 738.6699999999998 m -0.5, 0 a 0.5,0.5 0 1,0 1,0 a 0.5,0.5 0 1,0 -1,0  M1031.6633333333334 738.6699999999998 L1031.6633333333334 738.6699999999998 1019.6633333333334 738.6699999999998 M 1031.6633333333334 744.6699999999998 m -1, 0 a 1,1 0 1,0 2,0 a 1,1 0 1,0 -2,0 M 1031.6633333333334 744.6699999999998 m -0.5, 0 a 0.5,0.5 0 1,0 1,0 a 0.5,0.5 0 1,0 -1,0  M1031.6633333333334 744.6699999999998 L1031.6633333333334 744.6699999999998 1024.6633333333334 738.6699999999998 1031.6633333333334 732.6699999999998 M 1031.6633333333334 732.6699999999998 m -1, 0 a 1,1 0 1,0 2,0 a 1,1 0 1,0 -2,0 M 1031.6633333333334 732.6699999999998 m -0.5, 0 a 0.5,0.5 0 1,0 1,0 a 0.5,0.5 0 1,0 -1,0  M1019.6633333333334 738.6699999999998 Q 888.65 738.6699999999998, 757.64 473.03 T 495.61 207.38666666666694 M 483.61 207.38666666666694 m -1, 0 a 1,1 0 1,0 2,0 a 1,1 0 1,0 -2,0 M 483.61 207.38666666666694 m -0.5, 0 a 0.5,0.5 0 1,0 1,0 a 0.5,0.5 0 1,0 -1,0  M483.61 207.38666666666694 L483.61 207.38666666666694 495.61 207.38666666666694 M489.61 213.38666666666694 L489.61 213.38666666666694 489.61 201.38666666666694" id="h852080525" class="r"></path><path d="M 1031.6633333333334 763.6699999999998 m -1, 0 a 1,1 0 1,0 2,0 a 1,1 0 1,0 -2,0 M 1031.6633333333334 763.6699999999998 m -0.5, 0 a 0.5,0.5 0 1,0 1,0 a 0.5,0.5 0 1,0 -1,0  M1031.6633333333334 763.6699999999998 L1031.6633333333334 763.6699999999998 1019.6633333333334 763.6699999999998 M 1031.6633333333334 769.6699999999998 m -1, 0 a 1,1 0 1,0 2,0 a 1,1 0 1,0 -2,0 M 1031.6633333333334 769.6699999999998 m -0.5, 0 a 0.5,0.5 0 1,0 1,0 a 0.5,0.5 0 1,0 -1,0  M1031.6633333333334 769.6699999999998 L1031.6633333333334 769.6699999999998 1024.6633333333334 763.6699999999998 1031.6633333333334 757.6699999999998 M 1031.6633333333334 757.6699999999998 m -1, 0 a 1,1 0 1,0 2,0 a 1,1 0 1,0 -2,0 M 1031.6633333333334 757.6699999999998 m -0.5, 0 a 0.5,0.5 0 1,0 1,0 a 0.5,0.5 0 1,0 -1,0  M1019.6633333333334 763.6699999999998 C 933.6686666666666 763.6699999999998, 947.1666666666666 326.1666666666666, 997.1666666666666 326.1666666666666 M 1009.1666666666666 326.1666666666666 m -1, 0 a 1,1 0 1,0 2,0 a 1,1 0 1,0 -2,0 M 1009.1666666666666 326.1666666666666 m -0.5, 0 a 0.5,0.5 0 1,0 1,0 a 0.5,0.5 0 1,0 -1,0  M1009.1666666666666 326.1666666666666 L1009.1666666666666 326.1666666666666 997.1666666666666 326.1666666666666 M1003.1666666666666 332.1666666666666 L1003.1666666666666 332.1666666666666 1003.1666666666666 320.1666666666666" id="h1350461557" class="r"></path></g><g class="hrs"></g><g class="ts"><svg width="128.74" height="125" x="-131.17999999999998" y="-142.23666666666668" id="h3612180553" class="t"><rect height="40" width="128.74" class="th"></rect><text x="13" y="25" class="tht">user_technology</text><rect height="85" width="128.74" class="t-bg"></rect><text x="13" y="61" class="tf">id<tspan x="115.74000000000001" class="ty">serial</tspan></text><text x="13" y="86" class="tf fk">user</text><text x="13" y="111" class="tf fk">technology</text></svg><svg width="127.38" height="100" x="-86.29000000000003" y="24.863333333333333" id="h2004159149" class="t"><rect height="40" width="127.38" class="th"></rect><text x="13" y="25" class="tht">technology</text><rect height="60" width="127.38" class="t-bg"></rect><text x="13" y="61" class="tf fk">id<tspan x="114.38" class="ty">serial</tspan></text><text x="13" y="86" class="tf">name<tspan x="114.38" class="ty">char(150)</tspan></text></svg><svg width="148.74" height="225" x="-74.6933333333334" y="159.11333333333334" id="h408700467" class="t"><rect height="40" width="148.74" class="th"></rect><text x="13" y="25" class="tht">post</text><rect height="185" width="148.74" class="t-bg"></rect><text x="13" y="61" class="tf fk">id<tspan x="135.74" class="ty">serial</tspan></text><text x="13" y="86" class="tf">text<tspan x="135.74" class="ty">text()</tspan></text><text x="13" y="111" class="tf">date<tspan x="135.74" class="ty">DATETIME</tspan></text><text x="13" y="136" class="tf">pudlished<tspan x="135.74" class="ty">boolean</tspan></text><text x="13" y="161" class="tf">moderation<tspan x="135.74" class="ty">boolean</tspan></text><text x="13" y="186" class="tf">view_count<tspan x="135.74" class="ty">int</tspan></text><text x="13" y="211" class="tf fk">user<tspan x="135.74" class="ty">int</tspan></text></svg><svg width="129.13" height="200" x="-9.363333333333346" y="419.6533333333333" id="h2879765443" class="t"><rect height="40" width="129.13" class="th"></rect><text x="13" y="25" class="tht">comment</text><rect height="160" width="129.13" class="t-bg"></rect><text x="13" y="61" class="tf fk">id<tspan x="116.13" class="ty">serial</tspan></text><text x="13" y="86" class="tf">text<tspan x="116.13" class="ty">int</tspan></text><text x="13" y="111" class="tf">date<tspan x="116.13" class="ty">DATETIME</tspan></text><text x="13" y="136" class="tf fk">self<tspan x="116.13" class="ty">int</tspan></text><text x="13" y="161" class="tf fk">user<tspan x="116.13" class="ty">int</tspan></text><text x="13" y="186" class="tf fk">post<tspan x="116.13" class="ty">int</tspan></text></svg><svg width="172.72" height="350" x="310.8899999999997" y="150.38666666666694" id="h2728321744" class="t"><rect height="40" width="172.72" class="th"></rect><text x="13" y="25" class="tht">user</text><rect height="310" width="172.72" class="t-bg"></rect><text x="13" y="61" class="tf fk">id<tspan x="159.72" class="ty">serial</tspan></text><text x="13" y="86" class="tf">username<tspan x="159.72" class="ty">char(150)</tspan></text><text x="13" y="111" class="tf">password<tspan x="159.72" class="ty">char(100)</tspan></text><text x="13" y="136" class="tf">email<tspan x="159.72" class="ty">char(100)</tspan></text><text x="13" y="161" class="tf">fill_nmae<tspan x="159.72" class="ty">char(100)</tspan></text><text x="13" y="186" class="tf">date_join<tspan x="159.72" class="ty">DATE</tspan></text><text x="13" y="211" class="tf">last_join<tspan x="159.72" class="ty">DATE</tspan></text><text x="13" y="236" class="tf">first_login<tspan x="159.72" class="ty">DATE</tspan></text><text x="13" y="261" class="tf">is_superuser<tspan x="159.72" class="ty">BOOLEAN</tspan></text><text x="13" y="286" class="tf">is_staff<tspan x="159.72" class="ty">BOOLEAN</tspan></text><text x="13" y="311" class="tf">phone<tspan x="159.72" class="ty">char(14)</tspan></text><text x="13" y="336" class="tf">avatar<tspan x="159.72" class="ty">char(250)</tspan></text></svg><svg width="92.03" height="125" x="344.3766666666668" y="536.096666666667" id="h1158799087" class="t"><rect height="40" width="92.03" class="th"></rect><text x="13" y="25" class="tht">follower</text><rect height="85" width="92.03" class="t-bg"></rect><text x="13" y="61" class="tf">id<tspan x="79.03" class="ty">serial</tspan></text><text x="13" y="86" class="tf fk">user<tspan x="79.03" class="ty">int</tspan></text><text x="13" y="111" class="tf fk">user_f<tspan x="79.03" class="ty">int</tspan></text></svg><svg width="116.25" height="125" x="682.92" y="-89.16333333333336" id="h3975429570" class="t"><rect height="40" width="116.25" class="th"></rect><text x="13" y="25" class="tht">team_member</text><rect height="85" width="116.25" class="t-bg"></rect><text x="13" y="61" class="tf">id<tspan x="103.25" class="ty">serial</tspan></text><text x="13" y="86" class="tf fk">user<tspan x="103.25" class="ty">int</tspan></text><text x="13" y="111" class="tf fk">team<tspan x="103.25" class="ty">int</tspan></text></svg><svg width="104.71" height="175" x="883.0333333333332" y="66.01000000000002" id="h3292392105" class="t"><rect height="40" width="104.71" class="th"></rect><text x="13" y="25" class="tht">team</text><rect height="135" width="104.71" class="t-bg"></rect><text x="13" y="61" class="tf fk">id<tspan x="91.71" class="ty">serial</tspan></text><text x="13" y="86" class="tf">name<tspan x="91.71" class="ty">char</tspan></text><text x="13" y="111" class="tf">taglain<tspan x="91.71" class="ty">char</tspan></text><text x="13" y="136" class="tf">logo<tspan x="91.71" class="ty">char</tspan></text><text x="13" y="161" class="tf fk">user<tspan x="91.71" class="ty">int</tspan></text></svg><svg width="148.74" height="250" x="1009.1666666666666" y="269.1666666666666" id="h678070966" class="t"><rect height="40" width="148.74" class="th"></rect><text x="13" y="25" class="tht">team_post</text><rect height="210" width="148.74" class="t-bg"></rect><text x="13" y="61" class="tf fk">id<tspan x="135.74" class="ty">serial</tspan></text><text x="13" y="86" class="tf">text<tspan x="135.74" class="ty">text()</tspan></text><text x="13" y="111" class="tf">date<tspan x="135.74" class="ty">DATETIME</tspan></text><text x="13" y="136" class="tf">pudlished<tspan x="135.74" class="ty">boolean</tspan></text><text x="13" y="161" class="tf">moderation<tspan x="135.74" class="ty">boolean</tspan></text><text x="13" y="186" class="tf">view_count<tspan x="135.74" class="ty">int</tspan></text><text x="13" y="211" class="tf fk">user<tspan x="135.74" class="ty">int</tspan></text><text x="13" y="236" class="tf fk">team<tspan x="135.74" class="ty">int</tspan></text></svg><svg width="90" height="200" x="1031.6633333333334" y="581.6699999999998" id="h93763385" class="t"><rect height="40" width="90" class="th"></rect><text x="13" y="25" class="tht">Table 11</text><rect height="160" width="90" class="t-bg"></rect><text x="13" y="61" class="tf fk">...<tspan x="77" class="ty"></tspan></text><text x="13" y="86" class="tf">...<tspan x="77" class="ty"></tspan></text><text x="13" y="111" class="tf">...<tspan x="77" class="ty"></tspan></text><text x="13" y="136" class="tf fk">...<tspan x="77" class="ty"></tspan></text><text x="13" y="161" class="tf fk">...<tspan x="77" class="ty"></tspan></text><text x="13" y="186" class="tf fk">...<tspan x="77" class="ty"></tspan></text></svg><svg width="169.4" height="250" x="312.91666666666646" y="-154.11999999999995" id="h403680127" class="t"><rect height="40" width="169.4" class="th"></rect><text x="13" y="25" class="tht">profile</text><rect height="210" width="169.4" class="t-bg"></rect><text x="13" y="61" class="tf">bio<tspan x="156.4" class="ty">text()</tspan></text><text x="13" y="86" class="tf">githud<tspan x="156.4" class="ty">char(250)</tspan></text><text x="13" y="111" class="tf">sex<tspan x="156.4" class="ty">char(1)</tspan></text><text x="13" y="136" class="tf">birthday<tspan x="156.4" class="ty">DATE</tspan></text><text x="13" y="161" class="tf">first_name<tspan x="156.4" class="ty">char(100)</tspan></text><text x="13" y="186" class="tf">last_name<tspan x="156.4" class="ty">char(100)</tspan></text><text x="13" y="211" class="tf">middle_name<tspan x="156.4" class="ty">char(100)</tspan></text><text x="13" y="236" class="tf fk">user<tspan x="156.4" class="ty">int</tspan></text></svg></g></g><text class="qdbd-link" x="10" y="20">www.quickdatabasediagrams.com</text></svg>